<svg xmlns="http://www.w3.org/2000/svg" xmlns:xlink="http://www.w3.org/1999/xlink" width="1056" zoomAndPan="magnify" viewBox="0 0 792 611.999999" height="816" preserveAspectRatio="xMidYMid meet" version="1.0"><defs><g/><clipPath id="0e21b9ba28"><path d="M 97.539062 7.539062 L 694.460938 7.539062 L 694.460938 604.460938 L 97.539062 604.460938 Z M 97.539062 7.539062 " clip-rule="nonzero"/></clipPath><clipPath id="6aa83e8dac"><path d="M 396 7.539062 C 231.164062 7.539062 97.539062 141.164062 97.539062 306 C 97.539062 470.835938 231.164062 604.460938 396 604.460938 C 560.835938 604.460938 694.460938 470.835938 694.460938 306 C 694.460938 141.164062 560.835938 7.539062 396 7.539062 Z M 396 7.539062 " clip-rule="nonzero"/></clipPath><clipPath id="ea7bff4689"><path d="M 114.019531 24.019531 L 677.980469 24.019531 L 677.980469 587.980469 L 114.019531 587.980469 Z M 114.019531 24.019531 " clip-rule="nonzero"/></clipPath><clipPath id="cb0e998cf6"><path d="M 396 24.019531 C 240.265625 24.019531 114.019531 150.265625 114.019531 306 C 114.019531 461.734375 240.265625 587.980469 396 587.980469 C 551.734375 587.980469 677.980469 461.734375 677.980469 306 C 677.980469 150.265625 551.734375 24.019531 396 24.019531 Z M 396 24.019531 " clip-rule="nonzero"/></clipPath><clipPath id="a5d93154d1"><path d="M 193.742188 103.742188 L 598.257812 103.742188 L 598.257812 508.257812 L 193.742188 508.257812 Z M 193.742188 103.742188 " clip-rule="nonzero"/></clipPath><clipPath id="4835a3f903"><path d="M 396 103.742188 C 284.296875 103.742188 193.742188 194.296875 193.742188 306 C 193.742188 417.703125 284.296875 508.257812 396 508.257812 C 507.703125 508.257812 598.257812 417.703125 598.257812 306 C 598.257812 194.296875 507.703125 103.742188 396 103.742188 Z M 396 103.742188 " clip-rule="nonzero"/></clipPath><clipPath id="82d0cb82ac"><path d="M 210.292969 120.292969 L 581.707031 120.292969 L 581.707031 491.707031 L 210.292969 491.707031 Z M 210.292969 120.292969 " clip-rule="nonzero"/></clipPath><clipPath id="e57c94adaa"><path d="M 396 120.292969 C 293.4375 120.292969 210.292969 203.4375 210.292969 306 C 210.292969 408.5625 293.4375 491.707031 396 491.707031 C 498.5625 491.707031 581.707031 408.5625 581.707031 306 C 581.707031 203.4375 498.5625 120.292969 396 120.292969 Z M 396 120.292969 " clip-rule="nonzero"/></clipPath><clipPath id="2e6a3b388f"><path d="M 0 158 L 792 158 L 792 454 L 0 454 Z M 0 158 " clip-rule="nonzero"/></clipPath><clipPath id="809a458e33"><path d="M -37.796875 234.609375 L 810.039062 158.183594 L 829.796875 377.390625 L -18.039062 453.816406 Z M -37.796875 234.609375 " clip-rule="nonzero"/></clipPath><clipPath id="61db6926e9"><path d="M 19 337 L 788 337 L 788 456 L 19 456 Z M 19 337 " clip-rule="nonzero"/></clipPath><clipPath id="4b06f6ffac"><path d="M 15.222656 419.464844 L 786.351562 324.113281 L 791.964844 369.519531 L 20.835938 464.867188 Z M 15.222656 419.464844 " clip-rule="nonzero"/></clipPath><clipPath id="6ae9216bf0"><path d="M 15.222656 419.464844 L 786.351562 324.113281 L 791.964844 369.519531 L 20.835938 464.867188 Z M 15.222656 419.464844 " clip-rule="nonzero"/></clipPath></defs><g clip-path="url(#0e21b9ba28)"><g clip-path="url(#6aa83e8dac)"><path fill="#266418" d="M 97.539062 7.539062 L 694.460938 7.539062 L 694.460938 604.460938 L 97.539062 604.460938 Z M 97.539062 7.539062 " fill-opacity="1" fill-rule="nonzero"/></g></g><g clip-path="url(#ea7bff4689)"><g clip-path="url(#cb0e998cf6)"><path fill="#ffffff" d="M 114.019531 24.019531 L 677.980469 24.019531 L 677.980469 587.980469 L 114.019531 587.980469 Z M 114.019531 24.019531 " fill-opacity="1" fill-rule="nonzero"/></g></g><g clip-path="url(#a5d93154d1)"><g clip-path="url(#4835a3f903)"><path fill="#266418" d="M 193.742188 103.742188 L 598.257812 103.742188 L 598.257812 508.257812 L 193.742188 508.257812 Z M 193.742188 103.742188 " fill-opacity="1" fill-rule="nonzero"/></g></g><g clip-path="url(#82d0cb82ac)"><g clip-path="url(#e57c94adaa)"><path fill="#ffffff" d="M 210.292969 120.292969 L 581.707031 120.292969 L 581.707031 491.707031 L 210.292969 491.707031 Z M 210.292969 120.292969 " fill-opacity="1" fill-rule="nonzero"/></g></g><g clip-path="url(#2e6a3b388f)"><g clip-path="url(#809a458e33)"><path fill="#ffffff" d="M -37.796875 234.609375 L 809.921875 158.195312 L 829.679688 377.402344 L -18.039062 453.816406 Z M -37.796875 234.609375 " fill-opacity="1" fill-rule="nonzero"/></g></g><g fill="#000000" fill-opacity="1"><g transform="translate(6.00252, 396.045149)"><g><path d="M 95.28125 -116.59375 L 88.703125 -109.859375 L 88.671875 -110.265625 C 88.722656 -110.535156 88.757812 -110.945312 88.78125 -111.5 C 88.757812 -112.601562 88.5625 -113.960938 88.1875 -115.578125 C 87.8125 -117.203125 87.078125 -118.8125 85.984375 -120.40625 C 84.890625 -122.007812 83.265625 -123.3125 81.109375 -124.3125 C 73.597656 -127.613281 65.835938 -128.9375 57.828125 -128.28125 C 49.960938 -127.625 43.191406 -125.1875 37.515625 -120.96875 C 31.835938 -116.75 27.320312 -111.328125 23.96875 -104.703125 C 20.613281 -98.085938 18.476562 -90.816406 17.5625 -82.890625 C 16.988281 -78.015625 16.910156 -73.046875 17.328125 -67.984375 C 17.753906 -62.773438 18.648438 -57.859375 20.015625 -53.234375 C 22.222656 -45.472656 25.519531 -38.609375 29.90625 -32.640625 C 34.300781 -26.671875 39.644531 -22.082031 45.9375 -18.875 C 52.226562 -15.664062 59.304688 -14.390625 67.171875 -15.046875 C 75.179688 -15.703125 82.625 -18.25 89.5 -22.6875 C 91.457031 -24.007812 92.84375 -25.5625 93.65625 -27.34375 C 94.476562 -29.132812 94.941406 -30.84375 95.046875 -32.46875 C 95.148438 -34.101562 95.117188 -35.503906 94.953125 -36.671875 L 94.859375 -36.65625 C 94.804688 -37.207031 94.734375 -37.617188 94.640625 -37.890625 L 94.609375 -38.390625 L 102.203125 -32.625 L 110.015625 -27.046875 C 98.390625 -13.484375 84.394531 -6.03125 68.03125 -4.6875 C 58.101562 -3.863281 48.707031 -5.375 39.84375 -9.21875 C 30.988281 -13.070312 23.3125 -18.65625 16.8125 -25.96875 C 10.320312 -33.289062 5.570312 -41.898438 2.5625 -51.796875 C 1.351562 -55.484375 0.507812 -59.375 0.03125 -63.46875 C -0.101562 -64.34375 -0.207031 -65.226562 -0.28125 -66.125 L -0.328125 -66.75 C -0.398438 -67.625 -0.445312 -68.550781 -0.46875 -69.53125 C -0.664062 -73.582031 -0.472656 -77.554688 0.109375 -81.453125 C 1.472656 -91.617188 4.753906 -100.84375 9.953125 -109.125 C 15.160156 -117.414062 21.816406 -124.203125 29.921875 -129.484375 C 38.035156 -134.773438 47.054688 -137.832031 56.984375 -138.65625 C 73.347656 -140 88.375 -134.894531 102.0625 -123.34375 Z M 95.28125 -116.59375 "/></g></g></g><g fill="#000000" fill-opacity="1"><g transform="translate(131.874278, 385.661695)"><g><path d="M 92.484375 -140.546875 L 93.984375 -122.46875 C 93.972656 -122.539062 93.9375 -122.570312 93.875 -122.5625 L 93.75 -122.671875 L 92.296875 -124.109375 C 91.179688 -125.097656 89.53125 -126.085938 87.34375 -127.078125 C 85.164062 -128.078125 82.484375 -128.65625 79.296875 -128.8125 L 20.265625 -123.953125 L 24.75 -69.625 L 61.296875 -72.640625 C 63.890625 -72.921875 66.144531 -73.539062 68.0625 -74.5 C 69.976562 -75.457031 71.546875 -76.460938 72.765625 -77.515625 C 73.984375 -78.578125 74.90625 -79.519531 75.53125 -80.34375 C 75.851562 -80.644531 76.078125 -80.90625 76.203125 -81.125 L 76.484375 -81.453125 L 78.109375 -61.828125 L 76.984375 -62.890625 C 76.234375 -63.578125 75.164062 -64.347656 73.78125 -65.203125 C 72.394531 -66.054688 70.679688 -66.773438 68.640625 -67.359375 C 66.609375 -67.941406 64.28125 -68.195312 61.65625 -68.125 L 25.109375 -65.109375 L 29.453125 -12.453125 L 86.125 -17.234375 C 88.78125 -17.523438 91.117188 -18.128906 93.140625 -19.046875 C 95.171875 -19.972656 96.832031 -20.972656 98.125 -22.046875 C 99.414062 -23.117188 100.375 -24.085938 101 -24.953125 C 101.300781 -25.328125 101.515625 -25.625 101.640625 -25.84375 L 101.921875 -26.1875 L 103.40625 -8.21875 L 5.15625 -0.21875 L 6.1875 -1.4375 C 6.882812 -2.1875 7.671875 -3.285156 8.546875 -4.734375 C 9.429688 -6.191406 10.164062 -7.972656 10.75 -10.078125 C 11.332031 -12.191406 11.507812 -14.617188 11.28125 -17.359375 L 3.09375 -116.640625 C 2.863281 -119.378906 2.289062 -121.742188 1.375 -123.734375 C 0.457031 -125.722656 -0.550781 -127.359375 -1.65625 -128.640625 C -2.769531 -129.929688 -3.734375 -130.914062 -4.546875 -131.59375 C -4.910156 -131.84375 -5.207031 -132.0625 -5.4375 -132.25 L -5.75 -132.53125 Z M 92.484375 -140.546875 "/></g></g></g><g fill="#000000" fill-opacity="1"><g transform="translate(249.635967, 375.947259)"><g><path d="M 124.3125 -26.671875 C 124.613281 -23.941406 125.203125 -21.582031 126.078125 -19.59375 C 126.960938 -17.601562 127.957031 -15.960938 129.0625 -14.671875 C 130.175781 -13.390625 131.164062 -12.4375 132.03125 -11.8125 C 132.40625 -11.4375 132.703125 -11.191406 132.921875 -11.078125 L 133.265625 -10.78125 L 107.8125 -8.6875 L 107.90625 -8.78125 L 13.71875 -114.515625 L 21.65625 -18.203125 C 21.945312 -15.472656 22.535156 -13.113281 23.421875 -11.125 C 24.316406 -9.132812 25.316406 -7.492188 26.421875 -6.203125 C 27.523438 -4.921875 28.515625 -3.972656 29.390625 -3.359375 C 29.753906 -2.972656 30.046875 -2.722656 30.265625 -2.609375 L 30.609375 -2.328125 L 5.15625 -0.21875 L 5.421875 -0.5625 C 5.617188 -0.707031 5.910156 -1.003906 6.296875 -1.453125 C 6.984375 -2.203125 7.765625 -3.300781 8.640625 -4.75 C 9.523438 -6.195312 10.242188 -7.972656 10.796875 -10.078125 C 11.347656 -12.191406 11.539062 -14.617188 11.375 -17.359375 L 3.1875 -116.640625 C 2.894531 -119.378906 2.304688 -121.742188 1.421875 -123.734375 C 0.535156 -125.722656 -0.457031 -127.363281 -1.5625 -128.65625 C -2.675781 -129.945312 -3.632812 -130.929688 -4.4375 -131.609375 C -4.882812 -131.910156 -5.21875 -132.125 -5.4375 -132.25 L -5.75 -132.53125 L 19.703125 -134.640625 L 19.59375 -134.53125 L 113.8125 -28.71875 L 105.859375 -125.109375 C 105.554688 -127.847656 104.960938 -130.210938 104.078125 -132.203125 C 103.191406 -134.191406 102.195312 -135.828125 101.09375 -137.109375 C 99.988281 -138.398438 99.023438 -139.382812 98.203125 -140.0625 C 97.753906 -140.375 97.425781 -140.59375 97.21875 -140.71875 L 96.90625 -141 L 122.359375 -143.09375 L 122.0625 -142.765625 C 121.863281 -142.609375 121.609375 -142.34375 121.296875 -141.96875 C 120.535156 -141.226562 119.734375 -140.132812 118.890625 -138.6875 C 118.046875 -137.25 117.332031 -135.46875 116.75 -133.34375 C 116.175781 -131.226562 115.960938 -128.832031 116.109375 -126.15625 Z M 124.3125 -26.671875 "/></g></g></g><g fill="#000000" fill-opacity="1"><g transform="translate(397.271451, 363.768465)"><g><path d="M 102.53125 -141.46875 L 104 -123.609375 L 102.90625 -124.65625 C 102.15625 -125.351562 101.050781 -126.140625 99.59375 -127.015625 C 98.144531 -127.890625 96.359375 -128.617188 94.234375 -129.203125 C 92.117188 -129.796875 89.726562 -130.015625 87.0625 -129.859375 L 58.109375 -127.46875 L 66.8125 -21.9375 C 67.039062 -19.195312 67.613281 -16.832031 68.53125 -14.84375 C 69.457031 -12.863281 70.472656 -11.226562 71.578125 -9.9375 C 72.679688 -8.644531 73.640625 -7.6875 74.453125 -7.0625 L 75.6875 -6.03125 L 42.9375 -3.34375 L 43.203125 -3.671875 C 43.398438 -3.828125 43.6875 -4.125 44.0625 -4.5625 C 44.757812 -5.3125 45.546875 -6.410156 46.421875 -7.859375 C 47.304688 -9.316406 48.023438 -11.097656 48.578125 -13.203125 C 49.128906 -15.304688 49.320312 -17.734375 49.15625 -20.484375 L 40.453125 -126.015625 L 11.5 -123.625 C 8.832031 -123.34375 6.503906 -122.738281 4.515625 -121.8125 C 2.535156 -120.882812 0.898438 -119.867188 -0.390625 -118.765625 C -1.679688 -117.660156 -2.632812 -116.707031 -3.25 -115.90625 L -4.28125 -114.671875 L -5.75 -132.53125 Z M 102.53125 -141.46875 "/></g></g></g><g fill="#000000" fill-opacity="1"><g transform="translate(525.093723, 353.224108)"><g><path d="M 62.890625 -63.15625 C 70.390625 -65.988281 76.132812 -70.34375 80.125 -76.21875 C 84.113281 -82.09375 85.796875 -88.828125 85.171875 -96.421875 C 84.390625 -105.867188 80.125 -113.492188 72.375 -119.296875 C 64.632812 -125.097656 55.21875 -127.539062 44.125 -126.625 L 20.203125 -124.65625 L 25.6875 -58.25 L 51.96875 -60.421875 C 52.632812 -60.535156 53.28125 -60.65625 53.90625 -60.78125 C 56.476562 -61.195312 58.910156 -61.773438 61.203125 -62.515625 C 61.804688 -62.703125 62.367188 -62.914062 62.890625 -63.15625 Z M 91.703125 -66.046875 C 86.179688 -60.296875 79.296875 -56.050781 71.046875 -53.3125 L 69.234375 -52.734375 L 92.984375 -24.09375 C 96.796875 -19.726562 99.945312 -16.441406 102.4375 -14.234375 C 104.9375 -12.023438 106.765625 -10.59375 107.921875 -9.9375 L 107.921875 -9.828125 L 108.015625 -9.84375 C 108.671875 -9.40625 109.144531 -9.097656 109.4375 -8.921875 L 109.546875 -8.921875 L 109.65625 -8.84375 L 78.546875 -6.28125 L 78.65625 -6.375 C 78.644531 -6.445312 78.664062 -6.523438 78.71875 -6.609375 C 78.78125 -6.742188 78.910156 -6.925781 79.109375 -7.15625 C 79.410156 -7.664062 79.722656 -8.429688 80.046875 -9.453125 C 80.367188 -10.472656 80.5625 -11.65625 80.625 -13 C 80.6875 -14.351562 80.441406 -15.867188 79.890625 -17.546875 C 79.347656 -19.222656 78.378906 -20.960938 76.984375 -22.765625 L 58.453125 -50.59375 L 26.53125 -47.96875 L 28.9375 -18.8125 C 29.226562 -16.070312 29.832031 -13.707031 30.75 -11.71875 C 31.675781 -9.738281 32.691406 -8.101562 33.796875 -6.8125 C 34.910156 -5.53125 35.867188 -4.578125 36.671875 -3.953125 L 37.90625 -2.921875 L 5.15625 -0.21875 L 6.1875 -1.4375 C 6.882812 -2.1875 7.671875 -3.285156 8.546875 -4.734375 C 9.429688 -6.191406 10.164062 -7.972656 10.75 -10.078125 C 11.332031 -12.191406 11.507812 -14.617188 11.28125 -17.359375 L 3.09375 -116.640625 C 2.863281 -119.378906 2.289062 -121.742188 1.375 -123.734375 C 0.457031 -125.722656 -0.550781 -127.359375 -1.65625 -128.640625 C -2.769531 -129.929688 -3.734375 -130.914062 -4.546875 -131.59375 C -4.910156 -131.84375 -5.207031 -132.0625 -5.4375 -132.25 L -5.75 -132.53125 L 19.390625 -134.609375 L 19.390625 -134.515625 L 49.46875 -137 C 63.5625 -138.15625 75.921875 -134.9375 86.546875 -127.34375 C 96.429688 -119.46875 101.859375 -109.644531 102.828125 -97.875 C 103.816406 -85.96875 100.109375 -75.359375 91.703125 -66.046875 Z M 91.703125 -66.046875 "/></g></g></g><g fill="#000000" fill-opacity="1"><g transform="translate(649.630886, 342.950748)"><g><path d="M 62.265625 -14.546875 C 71.015625 -15.265625 78.160156 -18.414062 83.703125 -24 C 89.242188 -29.59375 93.203125 -36.773438 95.578125 -45.546875 C 97.953125 -54.328125 98.710938 -63.921875 97.859375 -74.328125 C 96.992188 -84.722656 94.671875 -94.050781 90.890625 -102.3125 C 87.109375 -110.582031 82.023438 -117.019531 75.640625 -121.625 C 69.265625 -126.226562 61.703125 -128.171875 52.953125 -127.453125 C 44.191406 -126.722656 37.023438 -123.566406 31.453125 -117.984375 C 25.878906 -112.398438 21.921875 -105.21875 19.578125 -96.4375 C 17.234375 -87.664062 16.492188 -78.082031 17.359375 -67.6875 C 18.210938 -57.28125 20.515625 -47.941406 24.265625 -39.671875 C 28.015625 -31.410156 33.09375 -24.972656 39.5 -20.359375 C 45.914062 -15.753906 53.503906 -13.816406 62.265625 -14.546875 Z M 52.09375 -137.828125 C 67.695312 -139.109375 81.960938 -133.597656 94.890625 -121.296875 C 107.097656 -108.671875 113.9375 -93.5 115.40625 -75.78125 C 116.863281 -58.039062 112.609375 -41.90625 102.640625 -27.375 C 91.890625 -13.1875 78.710938 -5.453125 63.109375 -4.171875 C 47.503906 -2.878906 33.238281 -8.347656 20.3125 -20.578125 C 8.039062 -33.273438 1.175781 -48.492188 -0.28125 -66.234375 C -1.75 -83.953125 2.53125 -100.039062 12.5625 -114.5 C 23.3125 -128.757812 36.488281 -136.535156 52.09375 -137.828125 Z M 52.09375 -137.828125 "/></g></g></g><g clip-path="url(#61db6926e9)"><g clip-path="url(#4b06f6ffac)"><g clip-path="url(#6ae9216bf0)"><path fill="#000000" d="M 19.4375 453.683594 C 21.132812 452.664062 22.78125 451.558594 24.527344 450.636719 C 62.027344 430.757812 101.808594 417.261719 143.199219 408.292969 C 192.195312 397.679688 241.878906 392.566406 291.882812 390.996094 C 348.171875 389.230469 404.496094 388.5625 460.796875 387.238281 C 523.734375 385.753906 586.535156 382.542969 648.75 372.046875 C 690.820312 364.949219 732.042969 354.730469 771.820312 339.097656 C 772.96875 338.644531 774.09375 338.117188 775.265625 337.75 C 780.789062 336.011719 785.347656 337.742188 787.191406 342.222656 C 789.199219 347.101562 787.125 351.847656 781.597656 354.121094 C 776.089844 356.386719 770.488281 358.445312 764.839844 360.332031 C 718.386719 375.851562 670.484375 384.324219 621.925781 389.570312 C 562.144531 396.027344 502.140625 396.847656 442.089844 396.796875 C 393.996094 396.753906 345.890625 396.582031 297.808594 397.410156 C 249.457031 398.242188 201.289062 401.9375 153.660156 410.917969 C 108.980469 419.347656 65.90625 432.59375 25.398438 453.566406 C 23.773438 454.40625 22.023438 455.007812 20.332031 455.722656 C 20.035156 455.042969 19.734375 454.363281 19.4375 453.683594 Z M 19.4375 453.683594 " fill-opacity="1" fill-rule="nonzero"/></g></g></g><g fill="#d30000" fill-opacity="1"><g transform="translate(259.81569, 142.807551)"><g><path d="M -28.671875 -51.125 L -24.515625 -54.5 C -22.898438 -55.332031 -21.648438 -55.203125 -20.765625 -54.109375 L 12.28125 -13.421875 C 13.238281 -12.234375 12.976562 -10.875 11.5 -9.34375 L 8.203125 -6.65625 C 6.429688 -5.21875 4.804688 -5.410156 3.328125 -7.234375 L -28.484375 -46.40625 C -29.734375 -47.945312 -30 -49.25 -29.28125 -50.3125 C -29.15625 -50.625 -28.953125 -50.894531 -28.671875 -51.125 Z M -28.671875 -51.125 "/></g></g></g><g fill="#d30000" fill-opacity="1"><g transform="translate(275.877308, 128.284908)"><g><path d="M -19.390625 -55.453125 L 2.5625 -67.984375 C 4.601562 -69.148438 6.164062 -68.785156 7.25 -66.890625 L 9.453125 -63.046875 C 10.273438 -61.109375 10.023438 -59.765625 8.703125 -59.015625 L 4.234375 -56.453125 C 2.785156 -55.242188 2.429688 -53.992188 3.171875 -52.703125 L 23.390625 -17.296875 C 24.328125 -15.210938 24.101562 -13.773438 22.71875 -12.984375 L 17.953125 -10.25 C 16.222656 -9.675781 15.003906 -10.003906 14.296875 -11.234375 L -6.0625 -46.890625 C -6.800781 -48.179688 -7.90625 -48.722656 -9.375 -48.515625 C -9.789062 -48.390625 -10.132812 -48.25 -10.40625 -48.09375 L -14.75 -45.609375 C -16.0625 -44.859375 -17.351562 -45.328125 -18.625 -47.015625 L -20.75 -50.734375 C -21.882812 -52.710938 -21.429688 -54.285156 -19.390625 -55.453125 Z M -19.390625 -55.453125 "/></g></g></g><g fill="#d30000" fill-opacity="1"><g transform="translate(311.667754, 106.598586)"><g><path d="M 8.25 -62.625 L 12.9375 -64 C 15.257812 -64.6875 17.144531 -63.457031 18.59375 -60.3125 C 36.957031 -31.382812 46.234375 -16.597656 46.421875 -15.953125 L 46.5625 -15.484375 C 46.882812 -14.378906 46.265625 -13.597656 44.703125 -13.140625 L 40.359375 -11.859375 C 38.597656 -11.335938 37.078125 -11.90625 35.796875 -13.5625 C 31.453125 -21.070312 29.046875 -25.035156 28.578125 -25.453125 C 27.484375 -26.304688 26.046875 -26.472656 24.265625 -25.953125 L 19.4375 -24.53125 C 17.25 -23.894531 16.054688 -22.617188 15.859375 -20.703125 C 16.429688 -11.191406 16.53125 -6.382812 16.15625 -6.28125 C 15.570312 -5.082031 14.695312 -4.316406 13.53125 -3.984375 L 9.171875 -2.703125 C 7.617188 -2.242188 6.65625 -2.644531 6.28125 -3.90625 L 6.265625 -4.015625 C 6.128906 -4.460938 5.945312 -14.164062 5.71875 -33.125 C 5.550781 -49.625 5.488281 -58.515625 5.53125 -59.796875 C 6.132812 -61.328125 7.039062 -62.269531 8.25 -62.625 Z M 15.375 -36.71875 C 15.664062 -35.726562 16.546875 -35.3125 18.015625 -35.46875 L 19.5625 -35.921875 C 20.894531 -36.484375 21.378906 -37.382812 21.015625 -38.625 C 17.503906 -44.882812 15.585938 -47.96875 15.265625 -47.875 L 15.15625 -47.84375 C 14.84375 -47.75 14.914062 -44.039062 15.375 -36.71875 Z M 15.375 -36.71875 "/></g></g></g><g fill="#d30000" fill-opacity="1"><g transform="translate(360.484704, 92.234285)"><g><path d="M 6.765625 -58.203125 L 12.265625 -58.5 C 14.054688 -58.3125 15 -57.335938 15.09375 -55.578125 L 17.25 -14.609375 C 17.675781 -12.835938 18.613281 -11.992188 20.0625 -12.078125 L 35.6875 -12.890625 C 37.1875 -12.972656 38.242188 -12.335938 38.859375 -10.984375 C 38.941406 -10.535156 38.992188 -10.164062 39.015625 -9.875 L 39.265625 -5 C 39.003906 -3.101562 38.125 -2.113281 36.625 -2.03125 L 23.609375 -1.359375 C 20.347656 -1.179688 15.863281 -0.90625 10.15625 -0.53125 C 8.351562 -0.4375 7.285156 -1.441406 6.953125 -3.546875 L 4.25 -55 C 4.363281 -57.050781 5.203125 -58.117188 6.765625 -58.203125 Z M 6.765625 -58.203125 "/></g></g></g><g fill="#d30000" fill-opacity="1"><g transform="translate(403.467896, 90.568853)"><g><path d="M 16.265625 -56.3125 L 21.578125 -55.71875 C 23.316406 -55.15625 24.109375 -54.175781 23.953125 -52.78125 L 18.1875 -0.671875 C 18.019531 0.835938 16.863281 1.601562 14.71875 1.625 L 10.5 1.15625 C 8.226562 0.90625 7.222656 -0.390625 7.484375 -2.734375 L 13.046875 -52.875 C 13.265625 -54.84375 14.003906 -55.945312 15.265625 -56.1875 C 15.566406 -56.3125 15.898438 -56.351562 16.265625 -56.3125 Z M 16.265625 -56.3125 "/></g></g></g><g fill="#d30000" fill-opacity="1"><g transform="translate(424.808374, 91.170858)"><g><path d="M 41.234375 -47.859375 L 45.90625 -46.4375 C 48.226562 -45.738281 49.128906 -43.675781 48.609375 -40.25 C 48.109375 -5.976562 47.757812 11.472656 47.5625 12.109375 L 47.421875 12.59375 C 47.085938 13.6875 46.144531 13.992188 44.59375 13.515625 L 40.25 12.203125 C 38.5 11.671875 37.539062 10.363281 37.375 8.28125 C 37.851562 -0.375 38.015625 -5.007812 37.859375 -5.625 C 37.410156 -6.9375 36.296875 -7.863281 34.515625 -8.40625 L 29.703125 -9.859375 C 27.515625 -10.523438 25.820312 -10.113281 24.625 -8.625 C 19.882812 -0.351562 17.328125 3.722656 16.953125 3.609375 C 15.804688 4.285156 14.65625 4.445312 13.5 4.09375 L 9.15625 2.78125 C 7.601562 2.3125 7.019531 1.445312 7.40625 0.1875 L 7.4375 0.09375 C 7.570312 -0.351562 12.734375 -8.578125 22.921875 -24.578125 C 31.847656 -38.460938 36.675781 -45.925781 37.40625 -46.96875 C 38.75 -47.925781 40.023438 -48.222656 41.234375 -47.859375 Z M 32.984375 -22.28125 C 32.679688 -21.289062 33.191406 -20.457031 34.515625 -19.78125 L 36.046875 -19.3125 C 37.472656 -19.0625 38.375 -19.550781 38.75 -20.78125 C 39.238281 -27.9375 39.328125 -31.5625 39.015625 -31.65625 L 38.90625 -31.6875 C 38.582031 -31.789062 36.609375 -28.65625 32.984375 -22.28125 Z M 32.984375 -22.28125 "/></g></g></g><g fill="#d30000" fill-opacity="1"><g transform="translate(473.437027, 105.5089)"><g><path d="M 42.96875 -41.578125 C 44.769531 -40.492188 45.238281 -37.804688 44.375 -33.515625 C 42.539062 -15.734375 41.566406 -5.960938 41.453125 -4.203125 L 41.671875 -4.0625 C 41.921875 -3.976562 42.195312 -4.191406 42.5 -4.703125 L 57.53125 -29.75 C 58.75 -31.082031 59.96875 -31.382812 61.1875 -30.65625 L 65.90625 -27.8125 C 67.289062 -26.65625 67.507812 -25.289062 66.5625 -23.71875 L 40.171875 20.28125 C 39.472656 21.4375 38.523438 22 37.328125 21.96875 C 36.773438 21.914062 35.972656 21.578125 34.921875 20.953125 L 32.609375 19.5625 C 30.148438 18.09375 29.117188 16.101562 29.515625 13.59375 C 31.617188 -5.207031 32.738281 -15.925781 32.875 -18.5625 L 32.734375 -18.8125 L 32.53125 -18.953125 L 32.078125 -18.46875 L 17.25 6.234375 C 16.257812 7.890625 14.976562 8.445312 13.40625 7.90625 C 12.9375 7.71875 12.429688 7.457031 11.890625 7.125 L 9.578125 5.75 C 7.722656 4.632812 6.941406 3.398438 7.234375 2.046875 L 7.5 1.375 L 34.46875 -43.578125 C 35.113281 -44.648438 36.238281 -45.007812 37.84375 -44.65625 Z M 42.96875 -41.578125 "/></g></g></g><g fill="#d30000" fill-opacity="1"><g transform="translate(217.424945, 506.388509)"><g><path d="M 55.03125 -30.59375 L 56.5 -29.46875 C 61.71875 -25.46875 63.976562 -19.84375 63.28125 -12.59375 C 62.9375 -9.613281 61.660156 -6.6875 59.453125 -3.8125 L 59.234375 -3.53125 C 58.210938 -2.1875 56.738281 -2.132812 54.8125 -3.375 L 51.625 -5.828125 C 50.28125 -6.847656 49.816406 -8.066406 50.234375 -9.484375 C 52.367188 -12.265625 52.6875 -15.414062 51.1875 -18.9375 C 50.6875 -19.84375 50.035156 -20.65625 49.234375 -21.375 C 46.378906 -23.5625 43.046875 -23.492188 39.234375 -21.171875 C 38.359375 -20.421875 37.515625 -19.519531 36.703125 -18.46875 L 26.84375 -5.609375 C 23.9375 -1.804688 23.507812 1.820312 25.5625 5.28125 C 26.09375 5.988281 26.59375 6.523438 27.0625 6.890625 L 27.5625 7.28125 C 30.25 9.332031 33.472656 9.195312 37.234375 6.875 C 38.796875 5.269531 39.757812 4.5625 40.125 4.75 C 40.96875 4.46875 41.835938 4.664062 42.734375 5.34375 L 46.21875 8.015625 C 47.5625 9.046875 48.015625 10.269531 47.578125 11.6875 L 46.90625 12.5625 C 42.226562 18.664062 35.929688 20.976562 28.015625 19.5 C 25.660156 19.007812 23.148438 17.742188 20.484375 15.703125 C 13.953125 10.691406 11.703125 3.988281 13.734375 -4.40625 C 14.421875 -6.476562 15.425781 -8.378906 16.75 -10.109375 L 29.734375 -27.046875 C 34.265625 -32.960938 40.535156 -35.191406 48.546875 -33.734375 C 51.003906 -33.078125 53.164062 -32.03125 55.03125 -30.59375 Z M 55.03125 -30.59375 "/></g></g></g><g fill="#d30000" fill-opacity="1"><g transform="translate(262.837834, 540.747738)"><g><path d="M 47.203125 -41.96875 L 51.65625 -39.9375 C 53.863281 -38.9375 54.484375 -36.773438 53.515625 -33.453125 C 48.472656 0.453125 45.816406 17.707031 45.546875 18.3125 L 45.34375 18.765625 C 44.863281 19.804688 43.882812 19.988281 42.40625 19.3125 L 38.28125 17.4375 C 36.613281 16.675781 35.835938 15.253906 35.953125 13.171875 C 37.578125 4.648438 38.347656 0.078125 38.265625 -0.546875 C 38.003906 -1.910156 37.023438 -2.976562 35.328125 -3.75 L 30.75 -5.84375 C 28.675781 -6.789062 26.941406 -6.597656 25.546875 -5.265625 C 19.753906 2.285156 16.679688 5.976562 16.328125 5.8125 C 15.097656 6.332031 13.9375 6.34375 12.84375 5.84375 L 8.703125 3.96875 C 7.234375 3.289062 6.769531 2.351562 7.3125 1.15625 L 7.359375 1.0625 C 7.554688 0.632812 13.765625 -6.820312 25.984375 -21.3125 C 36.660156 -33.894531 42.4375 -40.660156 43.3125 -41.609375 C 44.757812 -42.367188 46.054688 -42.488281 47.203125 -41.96875 Z M 35.640625 -17.703125 C 35.210938 -16.765625 35.609375 -15.875 36.828125 -15.03125 L 38.296875 -14.375 C 39.679688 -13.925781 40.640625 -14.289062 41.171875 -15.46875 C 42.597656 -22.488281 43.160156 -26.070312 42.859375 -26.21875 L 42.765625 -26.25 C 42.453125 -26.394531 40.078125 -23.546875 35.640625 -17.703125 Z M 35.640625 -17.703125 "/></g></g></g><g fill="#d30000" fill-opacity="1"><g transform="translate(318.137994, 564.835702)"><g><path d="M 22.609375 -54.21875 L 47.3125 -48.890625 C 49.613281 -48.398438 50.535156 -47.085938 50.078125 -44.953125 L 49.140625 -40.625 C 48.453125 -38.632812 47.363281 -37.800781 45.875 -38.125 L 40.859375 -39.203125 C 38.960938 -39.253906 37.859375 -38.5625 37.546875 -37.125 L 28.953125 2.75 C 28.265625 4.925781 27.140625 5.847656 25.578125 5.515625 L 20.203125 4.359375 C 18.535156 3.640625 17.851562 2.582031 18.15625 1.1875 L 26.8125 -38.953125 C 27.125 -40.398438 26.660156 -41.539062 25.421875 -42.375 C 25.023438 -42.5625 24.675781 -42.6875 24.375 -42.75 L 19.484375 -43.8125 C 17.992188 -44.125 17.34375 -45.332031 17.53125 -47.4375 L 18.4375 -51.625 C 18.914062 -53.851562 20.304688 -54.71875 22.609375 -54.21875 Z M 22.609375 -54.21875 "/></g></g></g><g fill="#d30000" fill-opacity="1"><g transform="translate(367.824361, 575.112951)"><g><path d="M 11.265625 -57.578125 L 37.90625 -57.140625 C 39.5 -57.117188 40.375 -55.96875 40.53125 -53.6875 L 40.46875 -49.65625 C 40.226562 -47.40625 39.3125 -46.289062 37.71875 -46.3125 L 21.828125 -46.578125 C 19.785156 -46.367188 18.753906 -45.523438 18.734375 -44.046875 L 18.609375 -36.59375 C 18.585938 -35.113281 19.59375 -34.238281 21.625 -33.96875 L 32.015625 -33.796875 C 33.804688 -33.378906 34.6875 -32.472656 34.65625 -31.078125 L 34.578125 -25.578125 C 34.179688 -23.796875 33.304688 -22.914062 31.953125 -22.9375 L 21.5625 -23.109375 C 20.207031 -23.128906 19.222656 -22.613281 18.609375 -21.5625 L 18.34375 -20.703125 L 18.21875 -13.015625 C 18.59375 -11.367188 19.632812 -10.535156 21.34375 -10.515625 L 37.234375 -10.25 C 38.953125 -9.832031 39.800781 -8.96875 39.78125 -7.65625 L 39.6875 -1.765625 C 39.664062 -0.628906 38.789062 0.160156 37.0625 0.609375 L 9.8125 0.15625 C 8.039062 -0.25 7.164062 -1.148438 7.1875 -2.546875 L 8.046875 -54.96875 C 8.359375 -56.738281 9.429688 -57.609375 11.265625 -57.578125 Z M 11.265625 -57.578125 "/></g></g></g><g fill="#d30000" fill-opacity="1"><g transform="translate(418.839873, 575.749294)"><g><path d="M -1.28125 -58.578125 L 16.390625 -61.984375 C 22.273438 -63.117188 27.5625 -61.316406 32.25 -56.578125 C 34.375 -54.242188 35.742188 -51.476562 36.359375 -48.28125 C 37.492188 -42.414062 35.710938 -37.035156 31.015625 -32.140625 C 30.765625 -31.660156 30.6875 -31.15625 30.78125 -30.625 C 30.832031 -30.382812 34.828125 -23.675781 42.765625 -10.5 L 42.890625 -9.90625 C 42.835938 -8.800781 42.410156 -8.171875 41.609375 -8.015625 L 35.984375 -6.9375 C 33.867188 -6.53125 31.851562 -8.34375 29.9375 -12.375 C 29.738281 -12.601562 26.726562 -17.46875 20.90625 -26.96875 C 20.1875 -27.414062 19.53125 -27.582031 18.9375 -27.46875 L 15.328125 -26.765625 C 13.890625 -26.492188 13.347656 -25.429688 13.703125 -23.578125 L 17.15625 -5.671875 C 17.363281 -4.566406 16.671875 -3.644531 15.078125 -2.90625 L 9.546875 -1.84375 C 7.773438 -1.925781 6.785156 -2.519531 6.578125 -3.625 L -3.421875 -55.546875 C -3.679688 -56.878906 -2.96875 -57.890625 -1.28125 -58.578125 Z M 9.203125 -46.90625 L 10.609375 -39.671875 C 11.296875 -37.984375 12.34375 -37.28125 13.75 -37.5625 L 22.765625 -39.296875 C 25.859375 -39.691406 27.488281 -41.71875 27.65625 -45.375 L 27.390625 -46.765625 C 26.578125 -49.828125 24.644531 -51.539062 21.59375 -51.90625 C 21.019531 -51.863281 20.570312 -51.8125 20.25 -51.75 L 11.6875 -50.109375 C 9.738281 -49.515625 8.910156 -48.445312 9.203125 -46.90625 Z M 9.203125 -46.90625 "/></g></g></g><g fill="#d30000" fill-opacity="1"><g transform="translate(472.667034, 563.996351)"><g><path d="M -10.546875 -57.671875 L -5.53125 -59.515625 C -3.71875 -59.773438 -2.570312 -59.242188 -2.09375 -57.921875 L 15.96875 -8.71875 C 16.488281 -7.28125 15.800781 -6.078125 13.90625 -5.109375 L 9.921875 -3.640625 C 7.773438 -2.847656 6.296875 -3.554688 5.484375 -5.765625 L -11.890625 -53.125 C -12.578125 -54.988281 -12.410156 -56.3125 -11.390625 -57.09375 C -11.171875 -57.351562 -10.890625 -57.546875 -10.546875 -57.671875 Z M -10.546875 -57.671875 "/></g></g></g><g fill="#d30000" fill-opacity="1"><g transform="translate(499.728593, 554.927388)"><g><path d="M -14.953125 -57.890625 C -13.117188 -58.929688 -10.539062 -58.015625 -7.21875 -55.140625 C 7.332031 -44.753906 15.347656 -39.082031 16.828125 -38.125 L 17.046875 -38.234375 C 17.242188 -38.410156 17.195312 -38.757812 16.90625 -39.28125 L 2.546875 -64.703125 C 1.972656 -66.429688 2.304688 -67.644531 3.546875 -68.34375 L 8.34375 -71.046875 C 10.039062 -71.679688 11.335938 -71.203125 12.234375 -69.609375 L 37.46875 -24.921875 C 38.132812 -23.742188 38.160156 -22.640625 37.546875 -21.609375 C 37.222656 -21.148438 36.53125 -20.625 35.46875 -20.03125 L 33.109375 -18.703125 C 30.617188 -17.285156 28.382812 -17.375 26.40625 -18.96875 C 11.082031 -30.070312 2.3125 -36.335938 0.09375 -37.765625 L -0.203125 -37.765625 L -0.421875 -37.640625 L -0.234375 -37.015625 L 13.9375 -11.921875 C 14.882812 -10.242188 14.738281 -8.851562 13.5 -7.75 C 13.101562 -7.4375 12.625 -7.125 12.0625 -6.8125 L 9.734375 -5.5 C 7.835938 -4.425781 6.375 -4.351562 5.34375 -5.28125 L 4.90625 -5.84375 L -20.875 -51.484375 C -21.488281 -52.585938 -21.25 -53.742188 -20.15625 -54.953125 Z M -14.953125 -57.890625 "/></g></g></g><g fill="#d30000" fill-opacity="1"><g transform="translate(549.009384, 526.492202)"><g><path d="M -19.953125 -59.78125 L -18.671875 -60.921875 C -13.703125 -65.398438 -7.613281 -66.5625 -0.40625 -64.40625 C 2.363281 -63.394531 4.890625 -61.625 7.171875 -59.09375 C 8.535156 -57.570312 8.367188 -56.046875 6.671875 -54.515625 L 3.671875 -51.8125 C 2.421875 -50.6875 1.148438 -50.46875 -0.140625 -51.15625 C -2.484375 -53.757812 -5.523438 -54.640625 -9.265625 -53.796875 C -10.242188 -53.460938 -11.171875 -52.96875 -12.046875 -52.3125 C -14.609375 -50 -15.195312 -46.828125 -13.8125 -42.796875 C -13.363281 -41.796875 -12.613281 -40.71875 -11.5625 -39.5625 L -0.453125 -27.21875 C 2.609375 -23.820312 6.039062 -22.804688 9.84375 -24.171875 C 10.664062 -24.578125 11.296875 -24.976562 11.734375 -25.375 L 12.1875 -25.78125 C 14.101562 -27.507812 14.804688 -29.894531 14.296875 -32.9375 C 14.015625 -33.5 13.832031 -33.828125 13.75 -33.921875 C 13.15625 -34.566406 12.359375 -34.773438 11.359375 -34.546875 L 9.453125 -32.828125 C 7.867188 -31.410156 6.195312 -31.675781 4.4375 -33.625 L 2.421875 -35.875 C 0.671875 -37.820312 0.585938 -39.503906 2.171875 -40.921875 L 11.875 -49.671875 C 13.519531 -50.648438 14.84375 -50.582031 15.84375 -49.46875 L 21.078125 -43.65625 C 26.117188 -38.0625 27.15625 -31.382812 24.1875 -23.625 C 23.0625 -21.382812 21.390625 -19.269531 19.171875 -17.28125 C 13.128906 -11.832031 6.164062 -10.8125 -1.71875 -14.21875 C -3.738281 -15.375 -5.457031 -16.734375 -6.875 -18.296875 L -21.34375 -34.359375 C -25.289062 -38.742188 -26.65625 -44.097656 -25.4375 -50.421875 C -24.601562 -54.109375 -22.773438 -57.226562 -19.953125 -59.78125 Z M -19.953125 -59.78125 "/></g></g></g></svg>